<?xml version="1.0" standalone="no"?>
<!DOCTYPE svg PUBLIC "-//W3C//DTD SVG 20010904//EN"
 "http://www.w3.org/TR/2001/REC-SVG-20010904/DTD/svg10.dtd">
<svg version="1.0" xmlns="http://www.w3.org/2000/svg"
 width="309.000000pt" height="305.000000pt" viewBox="0 0 309.000000 305.000000"
 preserveAspectRatio="xMidYMid meet">

<g transform="translate(0.000000,305.000000) scale(0.100000,-0.100000)"
fill="#000000" stroke="none">
<path d="M785 2890 c-264 -8 -306 -16 -325 -65 -12 -32 -1 -56 39 -85 l30 -21
45 35 c25 19 67 39 93 45 26 6 221 16 432 22 509 14 696 1 891 -63 231 -75
389 -224 456 -431 l23 -72 1 45 c1 142 -100 328 -230 422 -95 68 -237 124
-390 154 -99 19 -651 27 -1065 14z"/>
<path d="M985 2650 c-143 -4 -269 -11 -280 -15 -54 -21 -72 -68 -37 -97 9 -8
40 -27 69 -43 28 -15 66 -42 83 -60 62 -64 63 -73 68 -769 6 -954 -2 -1013
-151 -1116 -30 -21 -56 -49 -64 -68 -12 -29 -11 -33 11 -48 37 -24 226 -33
686 -35 442 -2 501 3 652 57 118 42 188 85 264 159 117 116 158 231 153 425
-4 115 -5 118 -48 205 -62 126 -149 210 -298 290 -62 33 -113 65 -114 70 -1 6
29 31 67 58 92 63 130 100 175 171 134 206 113 464 -50 626 -58 57 -157 115
-246 144 -154 49 -417 62 -940 46z m612 -170 c157 -18 266 -87 325 -207 32
-66 33 -71 33 -193 0 -119 -1 -128 -31 -191 -37 -77 -112 -157 -179 -189 -56
-27 -149 -39 -311 -40 -105 0 -125 3 -145 19 l-24 19 -3 339 c-3 348 -1 387
21 418 24 32 158 43 314 25z m173 -1019 c152 -53 247 -145 285 -275 13 -43 16
-88 13 -184 -3 -121 -5 -131 -36 -194 -58 -119 -162 -193 -312 -224 -97 -19
-356 -16 -401 6 -53 25 -54 34 -57 458 l-3 392 26 26 26 26 197 -4 c173 -3
205 -7 262 -27z"/>
<path d="M2471 2234 c0 -11 3 -14 6 -6 3 7 2 16 -1 19 -3 4 -6 -2 -5 -13z"/>
<path d="M2608 970 c-5 -111 -11 -149 -33 -212 -79 -228 -284 -404 -560 -482
-161 -45 -224 -50 -629 -48 -580 3 -740 18 -810 73 -35 27 -66 16 -89 -34 -43
-89 -9 -96 548 -109 817 -18 966 -2 1235 130 77 37 109 61 175 127 142 142
204 309 192 525 -10 173 -23 187 -29 30z"/>
</g>
</svg>