<svg xmlns="http://www.w3.org/2000/svg" version="1.1" xmlns:xlink="http://www.w3.org/1999/xlink" xmlns:svgjs="http://svgjs.dev/svgjs" width="2000" height="1252" viewBox="0 0 2000 1252"><g transform="matrix(1,0,0,1,-1.2121212121212466,-2.01935483870966)"><svg viewBox="0 0 396 248" data-background-color="#ffffff" preserveAspectRatio="xMidYMid meet" height="1252" width="2000" xmlns="http://www.w3.org/2000/svg" xmlns:xlink="http://www.w3.org/1999/xlink"><g id="tight-bounds" transform="matrix(1,0,0,1,0.2400000000000091,0.4000000000000057)"><svg viewBox="0 0 395.52 247.2" height="247.2" width="395.52"><g><svg></svg></g><g><svg viewBox="0 0 395.52 247.2" height="247.2" width="395.52"><mask id="de34e4c5-ce70-4111-af8b-c3baa5ee0a91"><rect width="395.52" height="247.2" fill="white"></rect><g transform="matrix(1,0,0,1,126.61485970819304,37.08)" id="clone"><svg viewBox="0 0 142.2902805836139 173.04" height="173.04" width="142.2902805836139"><g><svg viewBox="0 0 142.2902805836139 173.04" height="173.04" width="142.2902805836139"><g><svg viewBox="0 0 142.2902805836139 173.04" height="173.04" width="142.2902805836139"><g><svg viewBox="0 0 142.2902805836139 173.04" height="173.04" width="142.2902805836139"><g id="SvgjsG7414"><svg viewBox="0 0 142.2902805836139 173.04" height="173.04" width="142.2902805836139" id="SvgjsSvg7413"><g><svg viewBox="0 0 142.2902805836139 173.04" height="173.04" width="142.2902805836139"><g transform="matrix(1,0,0,1,0,0)"><svg width="142.2902805836139" viewBox="-0.6299999999999999 -36.94 33.2 40.16" height="173.04" data-palette-color="#ff0033"><path d="M13.13-31.27L13.13-31.27Q12.04-31.27 11.79-30.44L11.79-30.44Q11.65-29.93 11.65-25.83L11.65-25.83 11.65-21.09Q11.65-19.58 11.91-19.23 12.18-18.87 13.57-18.87L13.57-18.87 14.6-18.87 14.82-18.9 16.28-18.97Q16.5-18.99 16.7-18.99L16.7-18.99Q19.04-18.99 20.63-20.73 22.22-22.46 22.22-24.93L22.22-24.93 22.22-25.59Q22.22-28.1 20.5-29.68 18.77-31.25 16.28-31.25L16.28-31.25 15.84-31.3 15.21-31.32 13.75-31.32Q13.35-31.27 13.13-31.27ZM16.06-16.36L16.06-16.36 13.96-16.36Q12.08-16.36 11.85-15.84 11.62-15.33 11.62-12.74L11.62-12.74 11.62-5.74Q11.62-3.47 12.17-2.97 12.72-2.47 15.23-2.47L15.23-2.47 16.67-2.47Q19.9-2.47 21.9-4.16 23.9-5.86 23.9-8.64L23.9-8.64 23.9-9.91Q23.9-12.92 21.7-14.64 19.51-16.36 16.06-16.36ZM12.92-33.94L15.5-33.94Q24.19-33.94 26.66-29.37L26.66-29.37Q27.54-27.76 27.54-25.67 27.54-23.58 26.55-22 25.56-20.41 24.79-19.79 24.02-19.17 23.23-18.69 22.44-18.21 22.44-18.07 22.44-17.92 24.4-16.93 26.37-15.94 27.51-14.6L27.51-14.6Q29.57-12.16 29.57-9.57L29.57-9.57 29.57-8.94Q29.57-4.64 26.05-2.1L26.05-2.1Q24.78-1.17 22.5-0.48 20.21 0.22 17.07 0.22L17.07 0.22 14.48 0.22 13.84 0.2Q13.21 0.17 12.55 0.17L12.55 0.17 11.91 0.15Q11.28 0.12 10.64 0.12L10.64 0.12 10.01 0.1Q9.38 0.07 8.74 0.07L8.74 0.07 6.86 0.07Q2.61 0.07 2.61-0.74 2.61-1.56 3.92-2.28 5.22-3 5.63-4.75 6.03-6.49 6.03-12.89L6.03-12.89 6.03-20.92 5.98-23.46Q5.96-24.1 5.96-26.49 5.96-28.88 5.51-29.85 5.05-30.81 3.71-31.45 2.37-32.08 2.37-32.57L2.37-32.57Q2.37-33.28 3.05-33.53 3.74-33.79 7.25-33.79L7.25-33.79 12.92-33.94Z" opacity="1" transform="matrix(1,0,0,1,0,0)" fill="black" class="wordmark-text-0" id="SvgjsPath7412" stroke-width="5" stroke="black" stroke-linejoin="round"></path></svg></g></svg></g></svg></g></svg></g></svg></g></svg></g></svg></g></mask><g mask="url(#de34e4c5-ce70-4111-af8b-c3baa5ee0a91)"><g><path d="M182.959 48.498v0c-3.787 0-6.115 1.442-6.984 4.326v0c-0.486 1.772-0.73 9.781-0.73 24.026v0 24.704c0 5.247 0.452 8.478 1.355 9.694 0.938 1.251 3.822 1.876 8.652 1.876v0h5.368l1.146-0.156 7.61-0.365c0.764-0.069 1.494-0.104 2.189-0.104v0c8.13 0 14.958-3.023 20.482-9.069 5.524-6.011 8.287-13.307 8.287-21.889v0-3.44c0-8.721-2.988-15.826-8.965-21.316-6.011-5.455-13.342-8.182-21.993-8.183v0l-2.294-0.26-3.283-0.104h-7.609c-1.39 0.174-2.467 0.261-3.231 0.26zM198.229 126.206v0h-10.945c-6.532 0-10.198 0.903-10.997 2.71-0.799 1.772-1.199 7.158-1.198 16.157v0 36.482c0 7.887 0.955 12.699 2.866 14.437 1.911 1.737 7.227 2.606 15.948 2.606v0h7.505c11.223 0 20.309-2.936 27.258-8.808 6.949-5.907 10.424-13.69 10.423-23.349v0-6.619c0-10.458-3.822-18.676-11.465-24.652-7.609-5.976-17.407-8.964-29.395-8.964zM181.864 34.583h13.446c30.194 0 49.581 7.939 58.164 23.818v0c3.058 5.594 4.586 12.022 4.586 19.283 0 7.262-1.72 13.638-5.159 19.127-3.44 5.524-6.497 9.364-9.173 11.518-2.675 2.154-5.386 4.065-8.13 5.733-2.745 1.668-4.117 2.745-4.118 3.232 0 0.521 3.405 2.502 10.215 5.941 6.845 3.44 12.248 7.488 16.209 12.144v0c7.158 8.478 10.736 17.216 10.736 26.215v0 3.283c0 14.94-6.115 26.823-18.345 35.649v0c-4.413 3.231-10.58 6.046-18.502 8.443-7.957 2.432-17.39 3.648-28.3 3.648v0h-13.499l-3.335-0.104c-2.189-0.104-4.43-0.156-6.723-0.156v0l-3.336-0.105c-2.189-0.104-4.395-0.156-6.619-0.156v0l-3.283-0.104c-2.189-0.104-4.395-0.156-6.619-0.156v0h-9.798c-14.767 0-22.15-1.407-22.15-4.222 0-2.849 2.276-5.524 6.827-8.026 4.517-2.502 7.488-6.793 8.912-12.873 1.39-6.046 2.085-20.187 2.085-42.424v0-41.851l-0.261-13.238c-0.069-2.224-0.104-7.488-0.104-15.792 0-8.304-0.782-14.141-2.345-17.511-1.598-3.336-4.725-6.115-9.382-8.339-4.656-2.189-6.984-4.135-6.983-5.837v0c0-2.467 1.181-4.135 3.544-5.003 2.397-0.903 9.694-1.355 21.889-1.356v0z" fill="#ff0033" fill-rule="nonzero" stroke="none" stroke-width="1" stroke-linecap="butt" stroke-linejoin="miter" stroke-miterlimit="10" stroke-dasharray="" stroke-dashoffset="0" font-family="none" font-weight="none" font-size="none" text-anchor="none" style="mix-blend-mode: normal" data-fill-palette-color="tertiary"></path></g></g><g transform="matrix(1,0,0,1,126.61485970819304,37.08)"><svg viewBox="0 0 142.2902805836139 173.04" height="173.04" width="142.2902805836139"><g><svg viewBox="0 0 142.2902805836139 173.04" height="173.04" width="142.2902805836139"><g><svg viewBox="0 0 142.2902805836139 173.04" height="173.04" width="142.2902805836139"><g><svg viewBox="0 0 142.2902805836139 173.04" height="173.04" width="142.2902805836139"><g id="textblocktransform"><svg viewBox="0 0 142.2902805836139 173.04" height="173.04" width="142.2902805836139" id="textblock"><g><svg viewBox="0 0 142.2902805836139 173.04" height="173.04" width="142.2902805836139"><g transform="matrix(1,0,0,1,0,0)"><svg width="142.2902805836139" viewBox="-0.6299999999999999 -36.94 33.2 40.16" height="173.04" data-palette-color="#ff0033"><path d="M13.13-31.27L13.13-31.27Q12.04-31.27 11.79-30.44L11.79-30.44Q11.65-29.93 11.65-25.83L11.65-25.83 11.65-21.09Q11.65-19.58 11.91-19.23 12.18-18.87 13.57-18.87L13.57-18.87 14.6-18.87 14.82-18.9 16.28-18.97Q16.5-18.99 16.7-18.99L16.7-18.99Q19.04-18.99 20.63-20.73 22.22-22.46 22.22-24.93L22.22-24.93 22.22-25.59Q22.22-28.1 20.5-29.68 18.77-31.25 16.28-31.25L16.28-31.25 15.84-31.3 15.21-31.32 13.75-31.32Q13.35-31.27 13.13-31.27ZM16.06-16.36L16.06-16.36 13.96-16.36Q12.08-16.36 11.85-15.84 11.62-15.33 11.62-12.74L11.62-12.74 11.62-5.74Q11.62-3.47 12.17-2.97 12.72-2.47 15.23-2.47L15.23-2.47 16.67-2.47Q19.9-2.47 21.9-4.16 23.9-5.86 23.9-8.64L23.9-8.64 23.9-9.91Q23.9-12.92 21.7-14.64 19.51-16.36 16.06-16.36ZM12.92-33.94L15.5-33.94Q24.19-33.94 26.66-29.37L26.66-29.37Q27.54-27.76 27.54-25.67 27.54-23.58 26.55-22 25.56-20.41 24.79-19.79 24.02-19.17 23.23-18.69 22.44-18.21 22.44-18.07 22.44-17.92 24.4-16.93 26.37-15.94 27.51-14.6L27.51-14.6Q29.57-12.16 29.57-9.57L29.57-9.57 29.57-8.94Q29.57-4.64 26.05-2.1L26.05-2.1Q24.78-1.17 22.5-0.48 20.21 0.22 17.07 0.22L17.07 0.22 14.48 0.22 13.84 0.2Q13.21 0.17 12.55 0.17L12.55 0.17 11.91 0.15Q11.28 0.12 10.64 0.12L10.64 0.12 10.01 0.1Q9.38 0.07 8.74 0.07L8.74 0.07 6.86 0.07Q2.61 0.07 2.61-0.74 2.61-1.56 3.92-2.28 5.22-3 5.63-4.75 6.03-6.49 6.03-12.89L6.03-12.89 6.03-20.92 5.98-23.46Q5.96-24.1 5.96-26.49 5.96-28.88 5.51-29.85 5.05-30.81 3.71-31.45 2.37-32.08 2.37-32.57L2.37-32.57Q2.37-33.28 3.05-33.53 3.74-33.79 7.25-33.79L7.25-33.79 12.92-33.94Z" opacity="1" transform="matrix(1,0,0,1,0,0)" fill="#ff0033" class="wordmark-text-0" data-fill-palette-color="primary" id="text-0"></path></svg></g></svg></g></svg></g></svg></g></svg></g></svg></g></svg></g></svg></g><defs></defs></svg><rect width="395.52" height="247.2" fill="none" stroke="none" visibility="hidden"></rect></g></svg></g></svg>